<?xml version="1.0" encoding="UTF-8"?>
<svg id="Layer_2" data-name="Layer 2" xmlns="http://www.w3.org/2000/svg" viewBox="0 0 373.07 354.29">
  <defs>
    <style>
      .cls-1 {
        fill: #8e1c00;
        stroke: #8e1c00;
        stroke-linejoin: round;
      }
    </style>
  </defs>
  <g id="Layer_1-2" data-name="Layer 1">
    <path class="cls-1" d="M.73,54.32c-1.81,2.87,7.44,6.63,10.76,8.07,10.34,4.48,20.37,3.04,24.67,2.24,77.96-14.55,154.74-39.92,154.74-39.92,4.51-1.49,21.56-7.03,44.4-9.87,20.48-2.55,32.01-1.23,39.02,0,6.89,1.21,17.29,3.13,29.07,9.61,12.99,7.15,20.42,15.87,27.71,24.42,7.41,8.69,14.66,17.2,19.02,30.76,2.75,8.56,3.14,15.37,3.52,22.07.34,5.98.7,20.29-4.23,39.68-1.54,6.08-2.44,8.05-15.97,40.62-14.83,35.71-12.2,29.59-14.79,35.69-8.56,20.16-10.99,25.06-15.03,36.63-3.14,8.99-5.82,16.69-7.98,27-3.15,15.01-3.66,28.3-3.29,38.74-4.03-7.4-6.85-13.44-8.69-17.61-2.2-5-3.36-8.14-6.57-9.39-2.91-1.13-6.91-.51-9.86.94-1.15.56-2.86.97-2.58,1.64,2.75,6.76,5.8,14.65,9.63,22.54,5.76,11.88,11.92,22.22,17.84,31.05.86,1.01,1.75,1.75,2.58,2.29,6.5,4.26,16.19,1.47,16.44,0,.83-4.96,1.87-11.75,3.76-18.08,9.74-32.57,33.42-51.64,46.02-62.69,1.58-1.39-4.36-1.79-7.28-2.35-5.89-1.13-11.52-1.57-13.85.47-7.75,6.78-14.27,16.35-21.37,26.3-5.09,7.13-7.01,12.61-8.22,12.21-2.32-.77,1.75-21.43,7.28-39.68,6.66-21.97,11.81-28.49,27.24-61.99,19.41-42.14,22.94-57.22,24.18-62.92,5.98-27.48,3.31-42.25,1.17-50.25-3.29-12.29-8.53-20.59-13.85-28.88-6.68-10.39-19.73-30.2-45.32-45.32-5.92-3.5-30.56-17.41-64.8-17.84-13.45-.17-23.5,1.8-34.75,4.23-43.99,9.49-72.88,18.78-92.51,24.18C51.04,47.59,5.48,46.81.73,54.32Z"/>
  </g>
</svg>