<?xml version="1.0" encoding="UTF-8"?>
<svg id="Layer_2" data-name="Layer 2" xmlns="http://www.w3.org/2000/svg" viewBox="0 0 572.67 220.14">
  <defs>
    <style>
      .cls-1 {
        fill: #8e1c00;
      }
    </style>
  </defs>
  <g id="Layer_1-2" data-name="Layer 1">
    <path class="cls-1" d="M59.95,100.35c-.94-1.17-1.96-2.86-2.18-4.98-.2-1.9.35-3.19,2.18-8.1,1.96-5.25,1.76-4.89,2.18-5.92,5.17-12.5,14.64-23.04,14.64-23.04,9.71-10.81,20.36-16.8,27.09-19.93.67-.04,1.62-.07,2.75,0,3.44.21,5.97,1.17,7.42,1.74,8.69,3.39,15.17,10.22,15.17,10.22,2.2,2.33,5.24,6.06,7.75,11.38.18,3.12.33,7.76,0,13.36-.72,12.31-3.26,21.55-4.95,27.37-8.3,28.65-12.45,42.97-19.46,56.23,0,0-15.46,29.27-41.1,49.87-5.28,4.24-12.71,9.36-22.79,11.03-6.76,1.12-11.93.24-13.21,0-5.85-1.08-9.63-3.31-15.92-7.01-4.68-2.75-9.63-5.72-14.49-11.3-2.04-2.35-3.96-4.3-4.46-6.05-1.28-4.49,0-9.34,0-14.01.56-.45,1.36-.95,2.39-1.11,4.51-.73,9.39,5.63,11.3,10.67,1.51,3.96,1.43,7.77.96,10.67.3.71.79,1.69,1.59,2.71,6.17,7.79,20.73,4.8,22.29,4.46,1.89-.41,5.22-1.31,11.62-4.94,13.45-7.61,22.11-16.87,25.63-20.86,6.07-6.88,9.57-12.57,14.09-19.99,14.34-23.54,21.34-43.88,23.6-50.8,2.04-6.26,5.31-17.18,7.87-31.13,1.53-8.34,2.41-15.69,2.95-21.63.08-.79.12-2-.16-3.43-.71-3.6-3.4-8.05-6.86-8.33-1.1-.09-2.33.54-4.74,1.8-3.39,1.77-5.73,3.52-6.04,3.76-4.55,3.44-8.39,6.34-12.58,10.78-5.84,6.19-7.8,10.53-13.72,19.93-3.01,4.78-7.62,11.78-13.88,20.09-.63.16-1.18.19-1.63.16-3.11-.18-4.99-3.16-5.29-3.66Z"/>
    <path class="cls-1" d="M155.95,63.49c-2.9,1.93-3.82,5.05-5.28,9.39-2.87,8.54-2.63,6.36-4.6,12.88-1.45,4.78-2.37,8.55-2.84,10.6-2.37,10.21-2.2,13.82-1.76,16.51.31,1.91.46,3.15,1.22,4.7,1.85,3.78,5.95,6.98,10.69,7.38,4.48.38,7.78-1.87,10.15-3.49,2.62-1.79,4.84-4.05,9.07-10.74,4.69-7.41,6.5-11.79,11.5-20.93,2.21-4.04,4.1-7.27,5.28-9.26.19-.41.47-1.05.68-1.88.33-1.32.63-2.5,0-3.35-.13-.18-.63-.79-1.89-.94-.17-.63-.4-1.61-.54-2.82-.28-2.34.05-3.11-.54-4.43-.12-.26-1.01-2.2-2.44-2.28-.63-.04-1.13.31-1.89.94-2.15,1.79-3.37,2.8-4.47,4.83-.96,1.78-1.24,3.24-1.49,4.29-.5,2.11-1.82,4.76-4.47,10.06-2.97,5.97-3.15,5.53-7.44,13.55-.62,1.16-3.2,6-7.17,11.81-1.61,2.36-3.5,4.95-4.6,4.56-.46-.16-.7-.81-.81-1.74-1.02-8.34,8.66-33.3,9.74-37.71.17-.71.35-1.81,1.08-3.22.93-1.79,1.74-2.12,1.89-3.35.17-1.34-.59-2.45-1.22-3.35-.48-.7-2.02-2.92-4.47-3.09-.51-.04-1.74-.03-3.38,1.07Z"/>
    <path class="cls-1" d="M227.26,21.94c-2.55.26-7.54,7.84-8.16,9.07-4.42,8.77.62-1.22-13.71,28.47-1.39,2.88-3.98,8.88-7.11,16.58-3.61,8.9-5.05,13.26-5.65,15.12-1.57,4.86-2.54,8.63-3.1,10.93-2.4,9.89-2.46,14.57-1.82,18.59.4,2.49.9,3.75,1.09,4.19.36.86,2.88,6.51,9.11,8.56,1.04.34,4.86,1.61,8.75,0,1.21-.5,2-1.1,3.28-2.15,2.18-1.78,5.26-3.88,8.38-7.51.78-.91,1.61-1.88,2.55-3.28,2.08-3.12,4.04-5.89,4.01-9.48,0-.99.36-4.76-1.09-4.56-1.59.23-2.78,1.66-4.19,2.55-7.05,4.48-13.5,9.84-14.76,10.93,0,0-.32.28-.82.65-1.38,1.03-2.28,1.7-2.76,1.47-.44-.22-.39-1.16-.09-3.86.29-2.62.44-3.94.55-4.5,2.15-10.74,6.89-22.24,6.89-22.24,2.34-5.11,5.64-12.73,9.1-22.43.77-2.16.53-1.57,1.38-3.95,3.15-8.85,9.8-27.57,13.79-31.62.29-.29,1.42-1.38,1.84-3.13.11-.44.31-1.51,0-2.76-.8-3.26-4.33-4.7-5.42-5.15-.95-.39-1.43-.58-2.05-.52Z"/>
    <path class="cls-1" d="M245.35,68.25c-2.39,1.01-3.28,3.5-4.72,6.45-3.37,6.92-.24.49-4.7,10.96-4.16,9.75-5.83,14.9-6.28,20.15-.33,3.83,0,7.59,0,7.59.14,1.6.24,2.76.52,3.93,1.26,5.21,6.05,10.19,11.78,11.51,1.35.31,3.34.75,5.63,0,3.15-1.03,4.74-3.63,5.89-5.5,0,0,3.44-5.61,1.96-12.43-.2-.93-.53-1.92-1.31-2.22-.39-.15-1.12-.22-3.01,1.18-2.86,2.12-3.48,3.97-6.41,6.02-1.05.73-1.65,1.14-2.05.92-.88-.51.23-3.61,1.65-9.42,1.08-4.39.68-3.56,1.57-7.07,1.66-6.54,4.12-16.22,7.46-20.54.24-.31.89-1.12,1.18-2.36.52-2.23-.52-4.23-1.05-5.23-.72-1.39-1.63-3.11-3.66-3.93-.24-.1-2.33-.89-4.45,0Z"/>
    <path class="cls-1" d="M272.18,100.57c.3-1.67.5-2.74.68-3.71,1.49-7.99,1.55-9.44,2.59-9.82,1.05-.39,1.69.83,3.85,1.67,3.97,1.55,8.07-.12,9.84-.84,3.14-1.28,5.12-3.47,9.08-7.87,1.85-2.06,2.71-3.33,3.18-5.02.69-2.47.23-4.56,0-5.53-.95-4.04-3.78-6.42-5.86-8.2-2.66-2.27-4.98-3.26-8.15-4.58-3.01-1.25-4.22-1.33-5.27-1.12-1.77.34-2.93,1.42-4.39,2.93-3.29,3.39-4.94,5.09-6.68,7.8-4.11,6.39-5.97,12.22-7.51,17.17-1.27,4.09-1.94,7.21-2.39,9.32-1.49,7.03-1.59,10.85-1.61,12.05-.06,3.79-.07,5.74.98,8,1.34,2.92,3.62,4.79,5.22,6.1,1.54,1.26,2.81,2.31,4.68,3.02,4.76,1.82,9.48,0,12.54-1.17,4.35-1.68,7.1-4.09,7.95-4.88,2.4-2.21,3.85-4.48,5.51-7.07,1.22-1.9,1.82-2.84,2.24-4,1.48-4.06,1.36-9-.2-9.56-.3-.11-.69-.07-2.49,1.17-2.13,1.47-3.19,2.2-4.58,3.71-3.16,3.42-7.34,6.12-10.75,8.34-7.52,4.9-8.26,4.88-8.71,4.58-1.32-.84-.98-3.96-.63-7.22.1-.9.36-2.35.88-5.27ZM279.5,76.31c2.86-4.62,4.29-6.93,7.35-8.79.81-.49,2.3-1.76,3.83-1.68.51.03.19,1.27,0,2.16-.24,1.08-.78,1.8-1.12,2.24-2.42,3.13-4.55,5.43-4.55,5.43-1.77,1.91-2.68,2.88-3.83,3.52-.28.15-2.63,1.43-3.2.8-.29-.32-.08-1.09,1.52-3.67Z"/>
    <path class="cls-1" d="M264.23,45.54c-.11.12-.45.44-1.6.28-1.17-.17-2.67-.76-4.99-3.18-1.32-1.37-3.16-3.29-2.7-4.02.33-.51,1.63-.21,2.52,0,1.97.46,3.22,1.45,4.68,2.61,1.14.9,1.59,1.46,1.9,2.12.14.29.73,1.57.19,2.19Z"/>
    <path class="cls-1" d="M405.37,75.88c-1.22-3.76-3.63-6.11-6.22-8.65-3.12-3.04-6.06-4.65-10.03-6.83-3.98-2.18-5.96-3.27-8.65-3.8-4.82-.96-8.98.2-11.41,1.12,7.24-14.6,10.97-22.62,13.05-27.32,2.98-6.73,2.88-7.36,4.75-10.63,1.37-2.39,2.12-4.24,3.63-7.95.38-.94.81-2.04.86-3.54.03-.77.07-3.09-1.47-5.19-1.13-1.53-3.56-3.56-5.71-2.99-1.69.44-2.28,2.24-3.99,5.87-1.43,3.03-3.26,5.86-4.73,8.88-1.69,3.48-3.76,7.43-7.9,15.32-2.58,4.92-4.63,8.66-6.36,11.81-4.79,8.75-5.27,9.28-8.07,14.58-1.92,3.63-4.07,7.72-6.6,13.28-1.73,3.81-3.43,8.21-6.84,17.03-3.04,7.86-3.73,9.96-4.32,12.96-.54,2.74-.74,5.14-1.14,9.94-.46,5.46-.31,7.05,0,8.56.71,3.4,2.17,5.76,2.85,6.84,2.54,4.03,5.79,6.31,7.66,7.41,1.26.74,4.48,2.6,8.88,3.01,1.4.13,5.97.4,14.1-3.75,6.36-3.25,10.38-6.9,14.67-10.86,9.5-8.76,14.42-16.51,15.54-18.31,3.77-6.05,5.27-10.27,5.79-11.84,1.75-5.23,3.29-9.85,1.64-14.96ZM394.25,78.18c-.63,8.72-5.32,16.73-10.41,23.66-7.85,10.43-16.46,20.37-28.85,24.75-10.42,3.08-8.65-10.02-7.6-16.28,2.15-12.01,5.67-26.17,14.02-34.88,5.53-5.1,13.09-9.19,20.38-10.81l.19-.03c8.47-1.77,13.01,6.05,12.27,13.58Z"/>
    <path class="cls-1" d="M450.36,72.48c-.8-2.17-1.81-2.66-4.71-6.35-1.96-2.49-2.9-4.98-4.3-6.15-1.17-.98-2.61,1.6-3.91,2.4-1.38-.19-3.53-.28-5.92.47-2.74.86-4.5,2.42-5.64,3.48-6.48,6.03-11.44,12.93-13.94,16.5-3.79,5.42-4.74,7.25-5.33,9.73-1.09,4.58-.2,8.16,0,8.91.24.91,1.02,3.59,3.18,6.35,1.26,1.62,3.27,4.21,6.97,5.43.22.07,5.45,1.71,10.45-1.02.83-.45,1.49-.94,3.18-2.46,2.49-2.25,4.95-4.47,8.2-8.4,1.09-1.32,5.06-6.21,8.91-13.34,1.76-3.27,2.44-5.03,2.87-6.94.49-2.18,1.21-5.33,0-8.61ZM430.36,92.25c-4.48,5.91-12.25,13.81-14.03,12.57-2.24-1.56,5.04-17.44,16.37-28.79,2.41-2.42,6.01-6.02,7.16-5.26,1.78,1.17-2.67,12.48-9.5,21.48Z"/>
    <path class="cls-1" d="M482.6,63c-2.36.21-5.98,1.01-7.5,1.69-2.15.96-5.13,2.3-6.86,5.49-1.27,2.35-1.28,4.61-1.27,6.02.03,3.91,1.66,6.74,2.01,7.81,2.97,9.24,2.56,20.33,2.01,24.29-.68,4.84-1.5,10.18-5.6,15.1-1.25,1.5-3.58,4.24-7.6,5.81-6.49,2.53-13.55.52-18.06-2.96-4.54-3.5-7.54-9.31-6.44-10.45.5-.52,2.43-.14,3.59.74.45.34.61.61,1.27,1.06,0,0,.89.6,2.11.95,2.51.73,6.19.1,6.76,0,3.05-.54,4.87-.86,6.65-2.32,1.1-.9,1.75-1.87,2.43-3.06,3.07-5.38,4.17-10.72,4.22-10.98.85-4.27.77-7.38.63-13.52-.11-4.62-.16-6.92-.63-9.61-.58-3.3-1.44-5.9-1.58-10.45-.07-2.25.08-3.38.42-4.47.87-2.8,2.68-4.51,3.91-5.67,1.31-1.24,2.97-2.81,5.7-3.59.84-.24,3.54-.98,6.55,0,5.39,1.76,7.89,8.08,7.29,8.13Z"/>
    <path class="cls-1" d="M522.72,59.8c-.39-.8-1.22-2.22-2.81-3.44-.72-.56-2.55-1.81-5.1-1.99-1.9-.14-3.5.37-4.85.97-6.53,2.92-13.54,11.16-15.3,13.26-4.72,5.63-7.28,8.71-9.82,13.77-2.57,5.12-3.47,8.97-3.7,9.98-.7,3.11-1.51,6.75-.77,11.44.24,1.5,1.25,6.97,5.48,11.99,1.57,1.86,3.12,3.65,5.87,4.59,3.37,1.15,6.39.29,7.27,0,2.46-.81,4.2-2.34,6.89-4.72.55-.48.22-.22,2.17-2.04,2.37-2.21,3.19-2.92,4.97-4.59,2.15-2.02,3.22-3.03,3.44-3.44,1.17-2.15,1.53-5.33,0-7.65-.4-.6-.81-1.5-1.15-1.28-4.16,2.69-7.33,5.68-12,8.5-.5.3.5-.39-9.74,5.17-1.07.58-1.93,1.05-2.7.72-2.15-.95-1.42-7.32-.66-10.84,1.09-5.06,3.15-8.39,6.33-13.43,3.91-6.2,7.91-10.83,11.17-14.14,4.9-4.98,7.36-7.48,9.58-7.98,1.04-.24,3.67-.64,4.84-2.64.47-.8.57-1.62.58-2.21Z"/>
    <path class="cls-1" d="M549.04,24.72c-1.93.63-2.76,4.13-4.4,7.28-1.65,3.17-2.65,5.75-4.58,10.78-1.77,4.62-2.66,6.93-3.59,10.06-.98,3.3-1,4-2.96,11.29-.31,1.15-.44,1.61-1.62,5.87-3.52,12.7-3.46,12.53-3.5,12.67-1.69,5.21-3.5,9.26-5.21,15.99-.21.81-.46,1.84-.45,3.23,0,3.56,1.69,5.93,4.23,9.52.4.56,1,1.37,2.07,1.71.28.09,1.26.42,2.07,0,1.08-.56,1.08-2.05,1.62-4.31.38-1.57,1.09-3.05,1.62-4.58.97-2.84,3.95-9.7,7.55-15.36,6.5-10.23,16.09-18.25,17.7-17.07.54.4.3,1.92,0,3.77-.31,1.94-.9,3.34-1.08,3.77-.6,1.47-1.15,3.75-2.25,8.32-1.15,4.79-1.84,7.7-1.71,11.62.17,4.76,1.47,8.32,2.07,9.79,1.68,4.13,3.87,6.67,4.49,7.37,1.32,1.48,3.16,3.5,6.2,4.52.8.27,3.96,1.34,5.03,0,.79-.98.07-2.82,0-3-.45-1.12-1.27-1.77-1.53-1.98-.68-.54-5-4-6.47-6.47-1.26-2.12-.87-4.37-.09-8.89.69-4.03,1.49-4.29,3.14-10.24,1.12-4.03,1.83-6.65,1.8-10.15-.02-1.52-.06-4.02-1.08-7.07-1.53-4.58-4.23-7.28-6.02-9.04-1.93-1.89-3.36-3.25-5.32-3.21-1.28.03-2.2.7-4,2.05-2.08,1.56-6.62,5.45-8.58,8.33-.13.19-.49.73-.73.66-.18-.05-.36-.48-.11-2.6.48-4.03,1.75-7.58,2.64-10.12,1.6-4.56,1.22-3.63,1.73-5,1.71-4.54,5.67-14,7.9-18.63.11-.24.39-.81.52-1.62.33-2.2-.83-4.06-1.33-4.86-1.79-2.86-4.62-4.76-5.74-4.39Z"/>
  </g>
</svg>