<?xml version="1.0" encoding="UTF-8"?>
<svg id="Layer_2" data-name="Layer 2" xmlns="http://www.w3.org/2000/svg" viewBox="0 0 264.48 363.56">
  <defs>
    <style>
      .cls-1 {
        fill: #8e1c00;
        stroke: #8e1c00;
        stroke-linejoin: round;
      }
    </style>
  </defs>
  <g id="Layer_1-2" data-name="Layer 1">
    <path class="cls-1" d="M263.29,93.35c-1.87-11.38-6.59-19.53-7.7-21.4-1.76-2.95-2.75-4.01-8.99-11.56-15.94-19.29-16.47-20.85-21.4-25.25-5.47-4.88-9.94-7.53-17.55-11.98-9.04-5.29-22.47-13.15-39.37-17.97-25.03-7.14-46.31-4.37-56.06-3-17.36,2.44-62.6,11.94-92.01,49.65C13.23,60.77.06,77.66.51,99.77c.15,7.42,1.8,13.68,4.28,23.11,3.57,13.58,6.64,25.25,15.41,36.81,6.13,8.08,13.45,14,21.83,20.77,3.23,2.61,7.72,6.05,14.98,12.18,6.26,5.29,9.38,7.93,10.27,8.99,7.83,9.31,8.99,21.01,9.84,30.81.51,5.92-.15,4.44,0,17.55.2,17.58,1.5,30.66,2.14,36.38,1.26,11.29-.78,15.51,2.57,18.4,2.45,2.12,6.38,2.89,9.94,2.23-1.03.77-1.93,1.76-2.53,3.04-1.78,3.8.11,7.78.36,8.3,1.79,3.63,5.22,4.96,6.86,5.59,2.45.95,3.94.81,8.98.9,1.05.02,1.95.04,2.73.06-1.38.72-2.36,1.56-2.76,2.46-1.1,2.5,1.46,5.92,5.05,10.72,3.59,4.81,5.97,6.07,11.83,11.83,7.61,7.48,6.86,8.55,9.96,10.51,4.1,2.59,11.09,4.34,23.72,0,8.56-11.78,17.12-23.57,25.69-35.35,4.7-.46,9.39-.92,14.09-1.38,1.19-1.13,2.9-2.88,4.7-5.25,3.29-4.34,5.82-7.66,5.25-11.32-.39-2.5-1.81-2.5-3.31-6.35-1.19-3.05-1.24-5.46-1.38-8.01-.4-7.26-.84-3.77-1.66-15.19-1.25-17.47-1.88-26.21-.55-36.18,1.36-10.21,4-17.65,5.8-22.65,2.94-8.15,9.63-26.12,25.34-41.92,7.99-8.04,10.38-7.54,15.84-14.98,5.51-7.51,7.48-14.05,11.13-26.53,5.68-19.45,8.52-29.17,6.42-41.94ZM147.06,340.4c-2.91-2.78-9.14-6.15-14.82-12.73-.81-.94-1.76-1.72-2.82-2.37.65-.02,1.31-.04,2.01-.07,6.24-.24,15.63-.74,27.9-1.9-4.09,5.69-8.18,11.38-12.28,17.07ZM238.04,115.18c-.38,5.57-1.42,18.44-9.84,30.39-3.77,5.34-4.63,4.29-13.7,14.12-3.22,3.49-10.19,11.11-16.69,20.77-8.64,12.84-13.27,24.54-15.41,30.59-.21.59-.45,1.28-.7,2.01h-23.44c-.4-3.75-.52-8.1,0-12.9,1.71-15.65,9.55-26.74,13.1-31.67,4.47-6.21,5.28-5.43,19.36-22.29,5.82-6.97,6.45-8.02,7.04-9.38,4.7-10.87.26-25.76-7.82-34.02-11.33-11.57-32.7-13.06-50.83-1.56-1.69-2.82-4.52-6.83-8.99-10.56-2.22-1.85-17.7-14.75-34.41-8.6-1.03.38-12.01,4.62-16.81,16.03-5.28,12.55.61,24.98,5.08,34.41,9.32,19.66,24.82,31.19,34.8,37.15,3.86,3.5,5.91,6.98,7.04,9.38,3.25,6.95,2.85,13.57,2.35,21.9-.3,5.01-.98,9.17-1.56,12.12-9.12-.65-18.25-1.3-27.37-1.96.52,5.74,1.04,11.47,1.56,17.21,25.41.62,50.81,1.24,76.22,1.86-.64,3.16-1.2,6.58-1.61,10.23-6.84,1.65-15.5,2.85-25.34,1.99-21.81-1.91-36.53-12.83-41.84-7.04-2.31,2.52-2.02,7.32-.39,10.17,2.07,3.61,6.53,4.51,11.73,5.47,15.51,2.89,23.27,4.33,25.81,4.45,7.25.33,17.33.18,29.34-1.92,0,.39,0,.78,0,1.18.04,2.07.21,5.05.54,10.19-7.4,2.05-17.63,3.83-29.49,2.52-19.63-2.17-33.72-11.71-37.93-6.65-2,2.41-.9,7.1.78,9.78,2.41,3.82,6.86,4.89,11.34,5.87,13.54,2.96,20.3,4.44,25.81,4.69,7.51.35,17.99.18,30.46-2.05.2,2.67.4,5.17.59,7.49-13.21,5.41-23.97,5.89-32.23,4.73-17.74-2.5-29.36-13.26-35.19-8.21-2.83,2.45-3.28,7.73-1.56,10.95,1.68,3.16,5.33,4.14,11.34,5.47,12.34,2.74,18.5,4.11,23.07,4.3,11.53.49,21.86-1.35,29.97-3.59-.44.24-.89.49-1.36.74-2.58,1.34-11.85,5.88-29.96,5.99-13.03.08-33.3-2.11-37.23-2.57-.28-.03-1.39-.16-2.87-.07-.69.04-2.26.14-4.06.56.03-.02.05-.04.08-.06,2.92-2.4,3.57-6.03,3.85-7.7,2.41-14.53.48-28.44,0-41.09-.51-13.39,1.04-14.02,0-27.82-.75-9.93-1.14-15.09-3.42-21.83-4.29-12.63-11.86-20.79-16.69-25.88-6.1-6.43-7.1-5.59-18.83-15.63-11.71-10.02-17.56-15.03-22.68-22.25-3.53-4.98-11.49-16.5-12.84-33.38-1.34-16.79,4.62-29.29,6.85-33.81,5.64-11.45,13.03-18.23,17.97-22.68,21.88-19.69,47.15-24.45,59.06-26.53,11.29-1.98,27.39-4.8,47.51,0,24.29,5.8,39.51,19.14,51.36,29.53,10.65,9.33,19.86,17.61,25.25,32.1,1.29,3.48,4.78,13.81,3.85,27.39ZM119.89,137.18c3.22,10.58,17.14,19.12,24.26,15.26,3.74-2.03,5.45-7.41,5.48-11.22.04-4.54-2.31-6.03-3.52-13.43-.73-4.44-1.09-6.66,0-8.61,3.37-6.01,18.95-7.39,24.26,0,3.93,5.47.67,13.58,0,15.26-3,7.48-8.17,8.97-15.26,16.82-3.09,3.42-7.33,8.93-10.95,17.21-11.2-7.82-19.1-15.7-24.26-21.52-8.98-10.11-25.05-28.22-19.95-41.86.37-.98,1.88-5.03,4.69-5.48,5.32-.84,14.03,11.37,15.26,24.26.68,7.14-1.53,8.28,0,13.3Z"/>
  </g>
</svg>