<?xml version="1.0" encoding="UTF-8"?>
<svg id="Layer_2" data-name="Layer 2" xmlns="http://www.w3.org/2000/svg" viewBox="0 0 55.04 47.87">
  <defs>
    <style>
      .cls-1 {
        fill: #8e1c00;
      }
    </style>
  </defs>
  <g id="Layer_1-2" data-name="Layer 1">
    <path class="cls-1" d="M15.79,13.78c-.76-.85-.74-.77-.8-.87-.5-.88.17-2.17.8-3.26,1.01-1.76,2.17-3.15,3.48-4.56,1.72-1.85,2.84-2.71,5.08-4.42.31-.24.54-.4.89-.53,1.97-.69,4.38,1.17,5.55,2.53.91,1.06,1.29,2.09,1.41,2.43.41,1.2.43,2.32.33,3.35-.46,4.62-3.71,10.94-3.71,10.94-1.76,3.42-3.17,5.77-5.1,9-1.47,2.45-2.58,4.11-4.81,7.42-1.02,1.51-1.83,2.69-3.15,4.07-1.38,1.44-2.42,2.18-3.94,3.25-1.48,1.04-2.17,1.35-2.99,1.45-1.14.13-2.07-.2-2.5-.36-.77-.28-1.41-.78-2.66-1.77-1.4-1.11-2.03-1.78-2.2-1.97-.56-.62-1.69-1.85-1.41-2.27.15-.22.67-.19,1.02-.03.28.13.42.32.56.49.36.44.78.76,1.64,1.41.65.49,1.21.79,1.28.82,2.28,1.14,8.08-5.62,8.08-5.62,3.69-4.3,5.9-8.04,8.9-13.17,1.79-3.07,3.05-5.46,4.24-8.05,0,0,.91-1.75,2.17-5.19,0,0,.24-.65.49-1.87.1-.5.21-1.13.1-1.9-.06-.39-.09-.58-.2-.66-.58-.41-2.55,1.43-3.71,2.53-1.71,1.6-2.63,2.47-3.58,3.91-.42.64-.94,1.52-1.94,2.79-.42.54-.73,1.04-1.05,1.25-.19.12-.55.14-.92.03-.41-.12-.61-.39-1.33-1.18Z"/>
    <path class="cls-1" d="M38.77,2.11c-1.19,1.36-1.64,2.16-1.64,2.16-1.26,2.23-2.11,4.29-2.2,4.51-.34.83-.83,2.12-1.32,3.75-.58,1.95-.66,2.78-.68,3.43-.02.73-.03,1.44.24,2.32.13.42.82,2.45,2.84,3.39,0,0,.79.64,1.6.44,3.57-.9,8.44-6.63,16.73-16.65.35-.42.73-.91.69-1.18-.05-.34-.04-.26-.13-.46-.96-2.08-3.7-3.34-4.31-2.84-1.67,1.36-3.2,4.22-5.75,7.55-.08.11,0,0-5.75,6.67-.94,1.09-1.33,1.54-1.56,1.44-.95-.45,2.58-10.03,3.63-11.18.08-.09.3-.38.68-1.2.04-.08.09-.38.08-.68-.05-1.14-1.34-2.39-2.28-2.2-.24.05-.41.19-.88.72Z"/>
    <path class="cls-1" d="M39.27,34.97c-.38-1.71-3.39-3.52-6.91-3.26-.21.02.09-.53.22-.9.5-1.05.83-1.38,1.39-2.67.17-.4.25-.65.26-.95,0-.08.03-.7-.29-1.22-.48-.78-1.67-1.24-2.52-.93-.22.08-.44.22-2.25,3.02-.11.18-.17.26-.21.33-.37.59-.85,1.47-2.78,5.05,0,0-.3.56-1.91,3.65-.83,1.6-1.08,2.09-1.3,2.91-.22.81-.51,1.96-.21,3.39.11.51.36,1.68,1.32,2.73,1.68,1.84,4.11,1.76,4.42,1.75,1.6-.07,2.7-.82,3.89-1.64,1.2-.82,1.89-1.62,3.12-3.05.28-.32,1.46-1.71,2.65-3.71.62-1.05.95-1.77,1.09-2.67.11-.7.09-1.42,0-1.83ZM33.38,38.26c-2,3.37-5.54,7.17-6.5,6.57-.85-.54.5-4.24,2.48-6.93.56-.75,1.32-1.33,2.62-2.19,1.47-.97,2.47-1.36,2.75-1.13.55.45-1.2,3.42-1.35,3.68Z"/>
    <path class="cls-1" d="M52.93,24.04c-.73-1.24-1.9-1.73-3.37-2.32-1.49-.61-2.45-.99-3.65-.8-3.15.5-4.55,4.48-4.7,4.94-.26.77-.68,2.1-.29,3.72.52,2.12,2.09,3.29,2.56,3.64.38.28.99.71,1.9.95.48.13,2.13.5,3.72-.37.53-.29.84-.6,1.28-1.03.18-.18.92-.92,1.82-2.56.64-1.17.96-1.75,1.12-2.48.11-.53.47-2.2-.4-3.67ZM46.36,30.4c-.45.31-1.03.69-1.81.86-.56.12-.31-5.55,3.02-7.45.44-.25,1.13-.72,1.83-.6.64.11.06,5.02-3.03,7.19Z"/>
  </g>
</svg>